<svg width="32" height="32" viewBox="0 0 32 32" fill="none" xmlns="http://www.w3.org/2000/svg">
<rect width="32" height="32" rx="16" fill="#6A00FF"/>
<path d="M18.4755 25.827C18.2466 25.0832 18.0177 24.387 17.7889 23.7385C17.56 23.0709 17.3216 22.4319 17.0736 21.8216C16.8447 21.2112 16.6063 20.6104 16.3583 20.0191C16.1104 19.4278 15.8433 18.8175 15.5572 18.188L9.17712 25.827H5L14.0695 15.1553L10.0354 6H14.0123L16.7017 12.7234C17.6553 11.6172 18.5804 10.4918 19.4769 9.34742C20.3924 8.203 21.2221 7.0872 21.966 6H26C25.4469 6.78202 24.8556 7.58311 24.2262 8.40327C23.5968 9.20437 22.9483 10.015 22.2807 10.8352C21.6131 11.6363 20.936 12.4373 20.2494 13.2384C19.5818 14.0205 18.9237 14.7739 18.2752 15.4987C19.0382 17.2534 19.7534 18.9605 20.421 20.6199C21.0886 22.2603 21.718 23.996 22.3093 25.827H18.4755Z" fill="white"/>
</svg>
