<svg width="1681" height="608" viewBox="0 0 1681 608" fill="none" xmlns="http://www.w3.org/2000/svg">
<mask id="path-1-outside-1_802_226" maskUnits="userSpaceOnUse" x="0" y="0" width="1681" height="608" fill="black">
<rect fill="white" width="1681" height="608"/>
<path fill-rule="evenodd" clip-rule="evenodd" d="M458.586 523.359C467.478 545.989 476.073 568.902 484.372 592.098H605.299C582.181 529.3 559.951 471.31 538.611 418.13C517.864 364.949 497.413 314.597 477.259 267.074C457.697 219.551 438.135 174.291 418.574 131.294C399.012 88.2969 378.858 45.8656 358.11 4H252.299C231.552 45.8656 211.398 88.2969 191.836 131.294C172.274 174.291 152.416 219.551 132.262 267.074C112.7 314.597 92.5457 364.949 71.7984 418.13C51.0512 471.31 29.1184 529.3 6 592.098H122.481L147.378 524.208C156.269 501.012 164.865 477.533 173.164 453.772L201.617 367.212C220.586 316.86 238.666 270.186 255.856 227.189C273.639 184.192 289.348 147.701 302.982 117.716C316.023 146.569 331.435 182.777 349.219 226.34C367.002 269.903 385.378 316.86 404.347 367.212L432.8 453.772C441.099 477.533 449.695 500.729 458.586 523.359ZM647.793 431.729C647.793 393.824 654.017 357.333 666.465 322.256C679.507 286.614 697.883 255.215 721.594 228.059C745.898 200.337 774.944 178.273 808.732 161.866C842.521 145.459 880.458 137.256 922.546 137.256C967.597 137.256 1002.57 148.288 1027.47 170.352C1052.36 192.416 1064.81 220.704 1064.81 255.215C1064.81 290.857 1055.62 319.71 1037.25 341.775C1018.87 363.839 994.865 381.094 965.226 393.541C936.18 405.987 902.984 414.474 865.639 419C828.887 423.526 791.542 426.354 753.604 427.486C753.011 428.617 752.715 429.749 752.715 430.88V439.367C752.715 490.85 786.799 516.592 854.969 516.592C895.278 516.592 935.587 508.671 975.896 492.83L984.787 575.995C970.561 582.219 950.406 588.442 924.324 594.665C898.242 600.888 868.603 604 835.407 604C802.212 604 773.758 599.474 750.047 590.422C726.336 581.37 706.774 568.924 691.362 553.083C676.543 537.242 665.576 519.137 658.463 498.77C651.35 477.838 647.793 455.49 647.793 431.729ZM906.541 221.27C888.757 221.27 871.863 224.664 855.858 231.453C839.853 238.242 825.626 247.577 813.178 259.458C800.73 271.339 789.763 285.482 780.279 301.889C771.387 317.73 764.867 334.986 760.717 353.655C831.851 351.392 883.422 343.189 915.432 329.045C948.035 314.901 964.337 293.686 964.337 265.398C964.337 254.083 959.891 243.9 950.999 234.848C942.7 225.796 927.881 221.27 906.541 221.27ZM1417.46 530.148C1424.57 549.384 1431.68 570.034 1438.8 592.098H1557.95C1539.57 537.786 1520.01 486.302 1499.26 437.648C1478.51 388.428 1456.28 337.793 1432.57 285.744C1452.73 264.245 1473.18 241.898 1493.93 218.702C1515.27 194.941 1536.31 171.179 1557.06 147.418C1577.8 123.091 1597.96 99.0461 1617.52 75.2846C1637.08 50.9573 1655.46 27.1958 1672.65 4H1547.28C1524.16 36.2478 1498.37 69.3442 1469.92 103.289C1442.06 137.234 1413.31 170.614 1383.67 203.427L1300.09 4H1176.49L1301.87 275.56L1020 592.098H1149.82L1348.1 365.515C1356.99 384.185 1365.29 402.289 1373 419.827C1380.71 437.365 1388.11 455.186 1395.23 473.29C1402.93 491.394 1410.34 510.347 1417.46 530.148Z"/>
</mask>
<path d="M484.372 592.098L480.606 593.445L481.555 596.098H484.372V592.098ZM458.586 523.359L454.863 524.822L454.863 524.822L458.586 523.359ZM605.299 592.098V596.098H611.034L609.053 590.716L605.299 592.098ZM538.611 418.13L534.885 419.583L534.892 419.601L534.899 419.619L538.611 418.13ZM477.259 267.074L473.56 268.597L473.568 268.616L473.576 268.636L477.259 267.074ZM418.574 131.294L414.933 132.95L414.933 132.95L418.574 131.294ZM358.11 4L361.694 2.22386L360.592 0H358.11V4ZM252.299 4V0H249.817L248.715 2.22386L252.299 4ZM191.836 131.294L188.195 129.637L188.195 129.637L191.836 131.294ZM132.262 267.074L128.579 265.512L128.571 265.532L128.563 265.552L132.262 267.074ZM71.7984 418.13L75.5249 419.583L75.5249 419.583L71.7984 418.13ZM6 592.098L2.24628 590.716L0.265014 596.098H6V592.098ZM122.481 592.098V596.098H125.275L126.236 593.475L122.481 592.098ZM147.378 524.208L143.643 522.776L143.632 522.803L143.622 522.831L147.378 524.208ZM173.164 453.772L176.94 455.091L176.952 455.056L176.963 455.021L173.164 453.772ZM201.617 367.212L197.874 365.802L197.844 365.882L197.817 365.963L201.617 367.212ZM255.856 227.189L252.16 225.66L252.151 225.682L252.142 225.704L255.856 227.189ZM302.982 117.716L306.627 116.068L302.993 108.028L299.341 116.06L302.982 117.716ZM349.219 226.34L352.922 224.828L352.922 224.828L349.219 226.34ZM404.347 367.212L408.147 365.963L408.12 365.882L408.09 365.802L404.347 367.212ZM432.8 453.772L429.001 455.021L429.012 455.056L429.024 455.091L432.8 453.772ZM666.465 322.256L662.709 320.882L662.702 320.9L662.696 320.918L666.465 322.256ZM721.594 228.059L718.586 225.422L718.581 225.428L721.594 228.059ZM808.732 161.866L806.985 158.268L806.985 158.268L808.732 161.866ZM1037.25 341.775L1034.17 339.215L1034.17 339.215L1037.25 341.775ZM965.226 393.541L963.677 389.853L963.664 389.858L963.65 389.864L965.226 393.541ZM865.639 419L865.158 415.029L865.15 415.03L865.639 419ZM753.604 427.486L753.485 423.488L751.146 423.557L750.061 425.63L753.604 427.486ZM975.896 492.83L979.873 492.405L979.315 487.188L974.433 489.107L975.896 492.83ZM984.787 575.995L986.391 579.66L989.076 578.485L988.765 575.57L984.787 575.995ZM750.047 590.422L751.474 586.685L751.474 586.685L750.047 590.422ZM691.362 553.083L688.441 555.815L688.468 555.844L688.495 555.872L691.362 553.083ZM658.463 498.77L654.676 500.057L654.681 500.073L654.687 500.089L658.463 498.77ZM855.858 231.453L854.296 227.771L854.296 227.771L855.858 231.453ZM780.279 301.889L776.816 299.887L776.803 299.909L776.791 299.931L780.279 301.889ZM760.717 353.655L756.812 352.787L755.695 357.817L760.844 357.653L760.717 353.655ZM915.432 329.045L913.84 325.376L913.828 325.381L913.816 325.386L915.432 329.045ZM950.999 234.848L948.051 237.551L948.097 237.602L948.146 237.651L950.999 234.848ZM1438.8 592.098L1434.99 593.325L1435.88 596.098H1438.8V592.098ZM1417.46 530.148L1413.69 531.501L1413.7 531.518L1413.71 531.536L1417.46 530.148ZM1557.95 592.098V596.098H1563.52L1561.73 590.816L1557.95 592.098ZM1499.26 437.648L1495.57 439.202L1495.58 439.209L1495.58 439.217L1499.26 437.648ZM1432.57 285.744L1429.66 283.008L1427.82 284.963L1428.93 287.402L1432.57 285.744ZM1493.93 218.702L1490.95 216.03L1490.94 216.036L1493.93 218.702ZM1557.06 147.418L1560.07 150.049L1560.09 150.031L1560.1 150.013L1557.06 147.418ZM1617.52 75.2846L1620.61 77.8269L1620.62 77.8091L1620.64 77.7912L1617.52 75.2846ZM1672.65 4L1675.86 6.38167L1680.59 0H1672.65V4ZM1547.28 4V0H1545.22L1544.02 1.66943L1547.28 4ZM1469.92 103.289L1466.85 100.72L1466.84 100.736L1466.83 100.752L1469.92 103.289ZM1383.67 203.427L1379.98 204.973L1382.42 210.783L1386.64 206.108L1383.67 203.427ZM1300.09 4L1303.78 2.45386L1302.75 0H1300.09V4ZM1176.49 4V0H1170.24L1172.86 5.67664L1176.49 4ZM1301.87 275.56L1304.85 278.22L1306.6 276.263L1305.5 273.884L1301.87 275.56ZM1020 592.098L1017.01 589.438L1011.08 596.098H1020V592.098ZM1149.82 592.098V596.098H1151.63L1152.83 594.732L1149.82 592.098ZM1348.1 365.515L1351.71 363.795L1349.1 358.303L1345.09 362.881L1348.1 365.515ZM1373 419.827L1369.34 421.436L1369.34 421.436L1373 419.827ZM1395.23 473.29L1391.51 474.753L1391.53 474.805L1391.55 474.857L1395.23 473.29ZM488.138 590.751C479.826 567.517 471.216 544.565 462.309 521.896L454.863 524.822C463.74 547.413 472.321 570.288 480.606 593.445L488.138 590.751ZM605.299 588.098H484.372V596.098H605.299V588.098ZM534.899 419.619C556.223 472.759 578.438 530.712 601.545 593.48L609.053 590.716C585.923 527.887 563.68 469.862 542.324 416.64L534.899 419.619ZM473.576 268.636C493.714 316.12 514.15 366.435 534.885 419.583L542.338 416.676C521.578 363.463 501.113 313.075 480.941 265.512L473.576 268.636ZM414.933 132.95C434.473 175.9 454.015 221.115 473.56 268.597L480.958 265.552C461.379 217.987 441.798 172.682 422.215 129.637L414.933 132.95ZM354.526 5.77614C375.254 47.6017 395.389 89.9931 414.933 132.95L422.215 129.637C402.635 86.6006 382.462 44.1294 361.694 2.22386L354.526 5.77614ZM252.299 8H358.11V0H252.299V8ZM195.477 132.95C215.021 89.9931 235.156 47.6017 255.883 5.77614L248.715 2.22386C227.948 44.1294 207.775 86.6006 188.195 129.637L195.477 132.95ZM135.944 268.636C156.087 221.142 175.931 175.913 195.477 132.95L188.195 129.637C168.618 172.669 148.746 217.96 128.579 265.512L135.944 268.636ZM75.5249 419.583C96.2641 366.423 116.409 316.095 135.961 268.597L128.563 265.552C108.991 313.1 88.8272 363.475 68.072 416.676L75.5249 419.583ZM9.75372 593.48C32.8647 530.702 54.7884 472.736 75.5249 419.583L68.072 416.676C47.314 469.884 25.372 527.898 2.24628 590.716L9.75372 593.48ZM122.481 588.098H6V596.098H122.481V588.098ZM143.622 522.831L118.726 590.721L126.236 593.475L151.133 525.585L143.622 522.831ZM169.387 452.453C161.101 476.177 152.52 499.618 143.643 522.776L151.113 525.64C160.019 502.406 168.628 478.89 176.94 455.091L169.387 452.453ZM197.817 365.963L169.364 452.523L176.963 455.021L205.417 368.461L197.817 365.963ZM252.142 225.704C234.94 268.729 216.851 315.429 197.874 365.802L205.36 368.622C224.321 318.291 242.391 271.642 259.57 228.674L252.142 225.704ZM299.341 116.06C285.682 146.1 269.954 182.636 252.16 225.66L259.552 228.717C277.325 185.747 293.014 149.301 306.623 119.372L299.341 116.06ZM352.922 224.828C335.128 181.239 319.696 144.982 306.627 116.068L299.337 119.363C312.351 148.156 327.743 184.315 345.515 227.852L352.922 224.828ZM408.09 365.802C389.11 315.421 370.721 268.429 352.922 224.828L345.515 227.852C363.283 271.377 381.646 318.3 400.604 368.622L408.09 365.802ZM436.6 452.523L408.147 365.963L400.547 368.461L429.001 455.021L436.6 452.523ZM462.309 521.896C453.437 499.316 444.859 476.168 436.577 452.453L429.024 455.091C437.339 478.899 445.952 502.143 454.863 524.822L462.309 521.896ZM662.696 320.918C650.092 356.432 643.793 393.376 643.793 431.729H651.793C651.793 394.271 657.942 358.233 670.235 323.594L662.696 320.918ZM718.581 225.428C694.53 252.973 675.91 284.803 662.709 320.882L670.222 323.631C683.103 288.425 701.235 257.457 724.607 230.69L718.581 225.428ZM806.985 158.268C772.726 174.903 743.249 197.291 718.586 225.422L724.602 230.696C748.547 203.383 777.162 181.642 810.479 165.464L806.985 158.268ZM922.546 133.256C879.927 133.256 841.38 141.566 806.985 158.268L810.479 165.464C843.661 149.352 880.99 141.256 922.546 141.256V133.256ZM1030.12 167.359C1004.27 144.446 968.225 133.256 922.546 133.256V141.256C966.969 141.256 1000.87 152.129 1024.81 173.346L1030.12 167.359ZM1068.81 255.215C1068.81 219.608 1055.91 190.214 1030.12 167.359L1024.81 173.346C1048.82 194.619 1060.81 221.8 1060.81 255.215H1068.81ZM1040.32 344.334C1059.43 321.391 1068.81 291.56 1068.81 255.215H1060.81C1060.81 290.154 1051.82 318.03 1034.17 339.215L1040.32 344.334ZM966.775 397.229C996.933 384.564 1021.49 366.948 1040.32 344.334L1034.17 339.215C1016.26 360.73 992.796 377.625 963.677 389.853L966.775 397.229ZM866.12 422.97C903.773 418.407 937.347 409.839 966.801 397.217L963.65 389.864C935.012 402.136 902.195 410.54 865.158 415.029L866.12 422.97ZM753.723 431.484C791.781 430.349 829.25 427.511 866.128 422.97L865.15 415.03C828.524 419.54 791.302 422.36 753.485 423.488L753.723 431.484ZM756.715 430.88C756.715 430.475 756.815 429.976 757.147 429.342L750.061 425.63C749.207 427.259 748.715 429.023 748.715 430.88H756.715ZM756.715 439.367V430.88H748.715V439.367H756.715ZM854.969 512.592C821.273 512.592 796.732 506.21 780.689 494.093C764.857 482.137 756.715 464.143 756.715 439.367H748.715C748.715 466.074 757.614 486.692 775.868 500.477C793.909 514.103 820.495 520.592 854.969 520.592V512.592ZM974.433 489.107C934.555 504.779 894.741 512.592 854.969 512.592V520.592C895.815 520.592 936.619 512.563 977.359 496.553L974.433 489.107ZM988.765 575.57L979.873 492.405L971.919 493.255L980.81 576.421L988.765 575.57ZM925.252 598.556C951.425 592.311 971.845 586.023 986.391 579.66L983.184 572.331C969.277 578.414 949.387 584.573 923.396 590.774L925.252 598.556ZM835.407 608C868.845 608 898.804 604.867 925.252 598.556L923.396 590.774C897.679 596.91 868.361 600 835.407 600V608ZM748.621 594.159C772.904 603.429 801.866 608 835.407 608V600C802.557 600 774.613 595.519 751.474 586.685L748.621 594.159ZM688.495 555.872C704.369 572.187 724.447 584.93 748.621 594.159L751.474 586.685C728.225 577.81 709.18 565.66 694.229 550.293L688.495 555.872ZM654.687 500.089C661.985 520.985 673.243 539.57 688.441 555.815L694.283 550.35C679.842 534.913 669.168 517.29 662.239 497.452L654.687 500.089ZM643.793 431.729C643.793 455.895 647.411 478.68 654.676 500.057L662.25 497.483C655.288 476.995 651.793 455.085 651.793 431.729H643.793ZM857.42 235.136C872.92 228.561 889.281 225.27 906.541 225.27V217.27C888.233 217.27 870.807 220.767 854.296 227.771L857.42 235.136ZM815.94 262.351C828.035 250.807 841.855 241.738 857.42 235.136L854.296 227.771C837.852 234.746 823.217 244.347 810.416 256.564L815.94 262.351ZM783.742 303.891C793.055 287.78 803.793 273.945 815.94 262.351L810.416 256.564C797.667 268.732 786.472 283.184 776.816 299.887L783.742 303.891ZM764.622 354.523C768.691 336.215 775.077 319.329 783.767 303.847L776.791 299.931C767.698 316.131 761.042 333.756 756.812 352.787L764.622 354.523ZM913.816 325.386C882.549 339.202 831.63 347.397 760.59 349.657L760.844 357.653C832.071 355.387 884.296 347.176 917.049 332.704L913.816 325.386ZM960.337 265.398C960.337 278.715 956.52 290.221 948.939 300.088C941.315 310.01 929.716 318.488 913.84 325.376L917.024 332.715C933.751 325.458 946.604 316.257 955.282 304.963C964.002 293.614 968.337 280.369 968.337 265.398H960.337ZM948.146 237.651C956.4 246.054 960.337 255.263 960.337 265.398H968.337C968.337 252.904 963.382 241.746 953.853 232.045L948.146 237.651ZM906.541 225.27C927.537 225.27 940.911 229.763 948.051 237.551L953.948 232.145C944.49 221.829 928.224 217.27 906.541 217.27V225.27ZM1442.6 590.871C1435.48 568.759 1428.34 548.056 1421.21 528.761L1413.71 531.536C1420.8 550.712 1427.89 571.308 1434.99 593.325L1442.6 590.871ZM1557.95 588.098H1438.8V596.098H1557.95V588.098ZM1495.58 439.217C1516.29 487.77 1535.81 539.157 1554.16 593.38L1561.73 590.816C1543.33 536.415 1523.73 484.835 1502.94 436.079L1495.58 439.217ZM1428.93 287.402C1452.63 339.419 1474.84 390.019 1495.57 439.202L1502.95 436.094C1482.18 386.836 1459.94 336.167 1436.21 284.086L1428.93 287.402ZM1490.94 216.036C1470.22 239.21 1449.79 261.534 1429.66 283.008L1435.49 288.48C1455.67 266.957 1476.14 244.587 1496.91 221.369L1490.94 216.036ZM1554.04 144.787C1533.31 168.534 1512.28 192.282 1490.95 216.03L1496.9 221.375C1518.25 197.6 1539.31 173.824 1560.07 150.049L1554.04 144.787ZM1614.43 72.7423C1594.89 96.4852 1574.75 120.512 1554.01 144.822L1560.1 150.013C1580.86 125.669 1601.03 101.607 1620.61 77.8269L1614.43 72.7423ZM1669.43 1.61833C1652.28 24.7686 1633.93 48.4885 1614.4 72.778L1620.64 77.7912C1640.23 53.4261 1658.64 29.6229 1675.86 6.38167L1669.43 1.61833ZM1547.28 8H1672.65V0H1547.28V8ZM1472.98 105.859C1501.49 71.8452 1527.34 38.6691 1550.53 6.33057L1544.02 1.66943C1520.97 33.8265 1495.25 66.8432 1466.85 100.72L1472.98 105.859ZM1386.64 206.108C1416.32 173.248 1445.11 139.821 1473.01 105.827L1466.83 100.752C1439.01 134.647 1410.3 167.979 1380.7 200.746L1386.64 206.108ZM1296.4 5.54614L1379.98 204.973L1387.36 201.881L1303.78 2.45386L1296.4 5.54614ZM1176.49 8H1300.09V0H1176.49V8ZM1305.5 273.884L1180.12 2.32336L1172.86 5.67664L1298.23 277.237L1305.5 273.884ZM1022.99 594.758L1304.85 278.22L1298.88 272.9L1017.01 589.438L1022.99 594.758ZM1149.82 588.098H1020V596.098H1149.82V588.098ZM1345.09 362.881L1146.81 589.464L1152.83 594.732L1351.11 368.149L1345.09 362.881ZM1376.66 418.218C1368.94 400.639 1360.62 382.498 1351.71 363.795L1344.49 367.235C1353.37 385.871 1361.65 403.938 1369.34 421.436L1376.66 418.218ZM1398.95 471.827C1391.82 453.675 1384.39 435.805 1376.66 418.218L1369.34 421.436C1377.02 438.925 1384.41 456.697 1391.51 474.753L1398.95 471.827ZM1421.22 528.796C1414.08 508.927 1406.65 489.903 1398.91 471.724L1391.55 474.857C1399.22 492.886 1406.6 511.767 1413.69 531.501L1421.22 528.796Z" fill="url(#paint0_linear_802_226)" mask="url(#path-1-outside-1_802_226)"/>
<defs>
<linearGradient id="paint0_linear_802_226" x1="250.199" y1="521.428" x2="540.649" y2="-243.64" gradientUnits="userSpaceOnUse">
<stop stop-color="#F22424"/>
<stop offset="1" stop-color="#6A00FF"/>
</linearGradient>
</defs>
</svg>
